<?xml version="1.0" encoding="UTF-8" standalone="no"?>
<!-- Created with Inkscape (http://www.inkscape.org/) -->

<svg
   width="406.39999mm"
   height="406.39999mm"
   viewBox="0 0 406.39999 406.39999"
   version="1.1"
   id="svg1"
   xml:space="preserve"
   inkscape:version="1.3.2 (091e20e, 2023-11-25)"
   sodipodi:docname="HealthHound.svg"
   xmlns:inkscape="http://www.inkscape.org/namespaces/inkscape"
   xmlns:sodipodi="http://sodipodi.sourceforge.net/DTD/sodipodi-0.dtd"
   xmlns="http://www.w3.org/2000/svg"
   xmlns:svg="http://www.w3.org/2000/svg"><sodipodi:namedview
     id="namedview1"
     pagecolor="#ffffff"
     bordercolor="#999999"
     borderopacity="1"
     inkscape:showpageshadow="2"
     inkscape:pageopacity="0"
     inkscape:pagecheckerboard="0"
     inkscape:deskcolor="#d1d1d1"
     inkscape:document-units="mm"
     inkscape:zoom="0.22576966"
     inkscape:cx="1078.5329"
     inkscape:cy="916.86366"
     inkscape:window-width="1152"
     inkscape:window-height="961"
     inkscape:window-x="558"
     inkscape:window-y="43"
     inkscape:window-maximized="0"
     inkscape:current-layer="layer1" /><defs
     id="defs1" /><g
     inkscape:label="Layer 1"
     inkscape:groupmode="layer"
     id="layer1"
     transform="translate(101.39527,38.361628)"><path
       style="fill:#2a2e32;fill-opacity:1"
       d="M -101.39527,164.83836 V -38.361628 h 203.19999 203.2 v 203.199988 203.2 h -203.2 -203.19999 z m 151.902325,74.45782 c 0.20111,-0.51646 0.4279,-1.55593 3.02581,-13.86824 2.22222,-10.53183 5.69913,-28.10257 5.61242,-28.36269 -0.042,-0.12588 -0.5513,0.11732 -1.13186,0.54043 -0.58057,0.42312 -5.16323,3.35265 -10.1837,6.51008 -5.02047,3.15742 -9.41844,5.94772 -9.77327,6.20066 -0.67959,0.48445 -0.76344,0.81536 -3.19207,12.59798 -0.44992,2.18281 -1.41954,6.76672 -2.15471,10.18646 -1.35785,6.31618 -1.37089,6.38177 -1.31505,6.61458 0.0174,0.0728 4.28048,0.12222 9.4734,0.10991 9.04654,-0.0214 9.44994,-0.0436 9.63903,-0.52917 z m 110.304345,0.5006 c 0.003,-0.1175 0.18689,-1.04707 0.4097,-2.06571 0.84896,-3.8813 3.09098,-14.49771 4.10688,-19.44688 0.58248,-2.83765 1.60028,-7.65968 2.26178,-10.71562 1.43832,-6.6446 2.4325,-11.77396 2.28205,-11.77396 -0.0601,0 -1.97544,0.52439 -4.25638,1.16532 -2.28094,0.64092 -6.58794,1.83784 -9.57112,2.65981 -6.59186,1.8163 -6.61388,1.8249 -6.61723,2.58534 -0.003,0.64023 -0.76776,4.39768 -3.56967,17.53432 -2.25225,10.55958 -4.10073,19.5056 -4.10011,19.8431 5.9e-4,0.32189 19.04718,0.53609 19.0541,0.21428 z m -205.292335,-3.92956 4.12996,-0.15144 3.41066,-3.39722 c 1.87587,-1.86847 4.66698,-4.51066 6.20247,-5.87152 1.53549,-1.36087 3.85721,-3.42799 5.15937,-4.5936 3.18805,-2.85373 7.67257,-6.50739 9.03415,-7.36036 4.67732,-2.93014 15.55997909,-6.43803 28.390719,-9.15139 15.334981,-3.24294 17.679481,-3.80128 19.446871,-4.63127 1.01865,-0.47837 5.80343,-3.25685 10.63286,-6.17439 9.65738,-5.8342 14.71103,-8.50456 20.32339,-10.73892 6.68855,-2.66281 12.70805,-4.10782 19.57871,-4.69995 4.53461,-0.3908 10.90743,-0.0227 20.902535,1.20736 15.44194,1.90038 14.75358,1.84817 24.47396,1.85636 7.64254,0.006 9.66639,-0.0738 12.43542,-0.49313 4.74838,-0.71903 4.52914,-0.47714 2.68175,-2.95868 -1.96291,-2.63672 -5.0545,-5.59607 -7.49627,-7.17564 -5.19735,-3.36215 -13.97071,-6.39021 -22.13173,-7.63861 -5.45517,-0.83449 -5.0843,-0.89573 4.72124,-0.77968 10.08253,0.11933 14.68428,0.46112 19.54502,1.45168 4.85343,0.98906 8.79789,2.72446 10.64577,4.68368 2.91717,3.09295 4.12503,6.02842 6.82814,16.59452 0.44284,1.73101 0.8413,3.18342 0.88548,3.22759 0.0442,0.0442 1.26711,-0.22136 2.71764,-0.59007 8.83348,-2.24537 34.86705,-7.95174 42.19254,-9.24829 1.38245,-0.24468 3.82442,-0.45846 5.4266,-0.47507 2.78034,-0.0288 2.99273,0.009 4.66157,0.82915 0.96168,0.47264 2.21064,1.33574 2.77548,1.918 0.56484,0.58225 1.15854,1.05875 1.31933,1.05888 0.16079,1.3e-4 0.91167,-0.65461 1.66862,-1.45498 1.04915,-1.10931 1.55764,-1.4552 2.13928,-1.4552 1.97729,0 10.36224,3.79472 12.26942,5.55269 0.6674,0.6152 1.6771,1.84993 2.24377,2.74386 1.20082,1.8943 1.68722,2.35682 2.9501,2.80527 0.886,0.31461 14.45821,0.9865 14.71619,0.72851 0.0644,-0.0644 -0.80942,-1.35754 -1.94176,-2.87372 -1.13234,-1.51618 -2.88972,-3.87515 -3.90529,-5.24216 l -1.84649,-2.48548 -2.78372,-1.29515 c -1.53105,-0.71233 -3.19529,-1.48237 -3.69832,-1.71119 -2.94714,-1.34063 -7.09862,-3.34 -13.81272,-6.65226 -6.47712,-3.19536 -7.76386,-3.74121 -8.81928,-3.74121 -1.18159,0 -15.53517,1.32168 -20.24194,1.86387 -3.65222,0.42072 -17.29797,1.83877 -17.70195,1.83957 -0.30486,6e-4 -0.29808,-0.0826 0.0377,-0.46229 1.14162,-1.29118 5.19735,-10.26835 6.98439,-15.45964 1.01436,-2.9467 1.1549,-3.63222 1.1549,-5.63355 0,-2.35302 -0.55872,-5.67856 -1.2201,-7.26208 -0.43146,-1.03304 -0.53188,-0.44821 3.04738,-17.74838 0.58709,-2.83765 1.78667,-8.67171 2.66573,-12.96458 1.42453,-6.95662 2.28279,-11.01149 3.99435,-18.871534 0.27966,-1.2843 0.50847,-2.62375 0.50847,-2.97657 v -0.64147 h -9.49673 -9.49673 l -0.27958,1.52135 c -0.15377,0.83675 -0.70983,3.54542 -1.23568,6.01928 -0.52585,2.473848 -1.36284,6.462434 -1.85996,8.863534 -2.47138,11.93658 -3.1535,15.17054 -5.16216,24.47395 -1.19392,5.52979 -2.42329,11.28146 -2.73194,12.78149 -0.30865,1.50003 -0.65047,2.72042 -0.75961,2.71198 -0.10914,-0.008 -20.45464,-0.0153 -45.21224,-0.0153 H 71.572985 l 0.15731,-0.8599 c 0.0865,-0.47294 0.39354,-1.93146 0.68226,-3.24114 0.97401,-4.41825 4.00621,-18.48183 5.16264,-23.9448 0.6315,-2.98317 2.17924,-10.30551 3.43941,-16.27187 1.26017,-5.966344 2.35384,-11.056264 2.43038,-11.310934 0.13073,-0.43502 -0.44193,-0.46302 -9.47255,-0.46302 h -9.61169 l -0.86527,4.0349 c -1.08027,5.037488 -3.3129,15.549554 -5.07153,23.878634 -0.73742,3.4925 -1.87188,8.79078 -2.52103,11.77396 -0.64914,2.98318 -1.66215,7.74568 -2.25113,10.58333 -0.58897,2.83766 -1.13292,5.35845 -1.20878,5.60176 -0.12147,0.3896 -0.6496,0.44237 -4.42612,0.4422 -48.48571091,-0.002 -60.54801,0.0662 -60.4558,0.34283 0.0553,0.16576 0.98791,0.62715 2.07257,1.02533 2.1242801,0.77981 4.3998601,1.31793 11.6293991,2.75006 4.59866,0.91098 14.0341199,2.84978 26.4583409,5.43668 5.17863,1.07826 12.78624,2.84173 19.05,4.41586 0.5214,0.13103 0.29363,0.23714 -1.07576,0.50112 -2.05133,0.39544 -4.64854,1.18263 -6.39269,1.93757 -3.63292,1.57247 -5.85055,3.68255 -13.52436,12.86847 -6.99751,8.37635 -8.35163,9.87909 -11.021781,12.23149 -7.4201499,6.53714 -19.3292489,11.5548 -32.231139,13.57995 -1.64599,0.25836 -2.04645,0.42884 -2.67063,1.13687 -3.98115,4.51602 -6.65013,7.35187 -12.31654,13.08655 -3.63969,3.68355 -7.1343,7.03961 -7.76581,7.4579 -0.6315,0.41829 -2.00225,0.95398 -3.04609,1.19042 -3.19946,0.72471 -5.81468,2.49328 -8.43511,5.70434 -1.03729,1.27109 -4.17843,6.28793 -4.17843,6.67355 0,0.12494 1.63711,0.16093 3.63802,0.08 2.00092,-0.081 5.49651,-0.21535 7.76799,-0.29864 z M 238.02515,130.26588 c 0.53132,-0.24268 1.17614,-0.6199 1.43293,-0.83827 0.36293,-0.30862 1.60016,-0.43452 5.55625,-0.56538 4.95553,-0.16392 5.12255,-0.18784 6.35168,-0.90992 0.69428,-0.40787 1.66516,-1.23481 2.15752,-1.83766 0.95742,-1.17226 3.11101,-4.94184 5.61798,-9.83353 1.38299,-2.69854 1.50323,-3.05802 1.14348,-3.41865 -0.71514,-0.71689 -6.0695,-2.16903 -14.75951,-4.00289 -6.03196,-1.27293 -7.60459,-2.16029 -7.29209,-4.11459 0.28,-1.75102 0.008,-2.19035 -2.0183,-3.25492 -2.3909,-1.25638 -8.09323,-3.124176 -11.6437,-3.813894 -4.55103,-0.88409 -5.06316,-0.93524 -5.34455,-0.53378 -0.19581,0.27937 -0.2819,0.28579 -0.38618,0.0288 -0.21585,-0.53197 -1.72605,-0.38337 -3.68928,0.36302 -1.00363,0.381568 -2.2415,0.740258 -2.75082,0.797108 -6.08406,0.67905 -12.64911,2.673556 -14.50548,4.406866 -1.32688,1.23894 -1.46082,1.85604 -1.27441,5.87146 0.28861,6.21669 1.1434,8.87773 3.9961,12.44018 1.76161,2.1999 2.78435,2.85854 4.17252,2.68709 3.08025,-0.38044 5.86777,-2.99511 8.50621,-7.97875 4.20371,-7.94022 5.26599,-9.30455 8.76235,-11.2538 1.16417,-0.64903 2.32503,-1.26587 2.57969,-1.37075 0.72332,-0.2979 0.54291,0.18925 -0.22162,0.59841 -1.65078,0.88347 -3.7749,4.17646 -5.56154,8.62199 -1.02663,2.55447 -1.28223,3.51851 -1.3715,5.17295 -0.0945,1.75229 -0.0178,2.2342 0.5553,3.48597 1.08433,2.36849 4.04381,4.05996 7.98842,4.56571 1.71227,0.21953 2.8676,0.91455 4.48555,2.6984 1.8796,2.07233 2.5727,2.4279 4.73488,2.42908 1.13108,6.2e-4 2.17515,-0.16483 2.77812,-0.44024 z"
       id="path1" /><path
       style="fill:#2a2e32;fill-opacity:1;stroke-width:4.42929"
       d="M 2.2146465,768.48234 V 2.2146465 H 768.48234 1534.75 V 768.48234 1534.75 H 768.48234 2.2146465 Z M 590.6992,982.19573 c 7.83294,-38.36875 15.38537,-75.54186 16.78312,-82.60689 3.1739,-16.04228 1.62972,-15.51373 -47.75867,16.34715 l -37.84153,24.41191 -11.14038,55.80458 -11.14034,55.80462 h 38.42806 38.42806 z m 411.6231,26.57577 c 20.589,-97.02965 24.8459,-120.38789 22.3879,-122.84579 -2.7816,-2.78164 -70.36276,14.4344 -75.5523,19.24674 -3.31006,3.06941 -30.07959,127.32455 -30.07959,139.61925 0,6.0298 5.87045,7.1654 37.04018,7.1654 h 37.04018 z m -729.92078,-8.2065 c 23.14306,-20.84338 49.4085,-41.69211 58.36765,-46.33051 20.21987,-10.46841 77.9017,-27.3166 127.66266,-37.2888 31.0536,-6.22316 46.99347,-12.90692 90.99066,-38.15336 91.04978,-52.24612 125.11521,-60.1028 218.08054,-50.29719 70.25886,7.41061 146.38242,8.29682 156.00457,1.81615 11.26918,-7.59004 -32.63835,-44.80793 -66.98008,-56.77521 l -28.24972,-9.84437 35.97569,1.93768 c 43.32442,2.33348 73.39715,14.09844 82.87212,32.42096 3.59136,6.94496 9.85385,24.06169 13.91661,38.03718 4.06282,13.97548 8.08249,25.40997 8.93269,25.40997 0.85016,0 37.08429,-7.87515 80.52029,-17.50036 111.0884,-24.61664 113.231,-24.86814 129.5817,-15.20949 11.4352,6.7549 15.3094,7.20841 22.6133,2.64704 7.3526,-4.59176 11.9274,-3.94198 27.5922,3.91899 10.328,5.1829 24.1471,15.17866 30.7091,22.21291 10.8083,11.58619 14.6631,12.78949 40.971,12.78949 15.972,0 29.0401,-1.16907 29.0401,-2.59787 0,-1.42884 -6.1664,-11.18445 -13.7031,-21.67913 -11.5334,-16.05991 -22.0132,-23.01257 -66.1856,-43.90966 -58.7972,-27.81583 -58.7198,-27.80577 -143.7906,-18.68285 -29.2334,3.13497 -53.6675,5.34244 -54.298,4.90549 -0.6306,-0.43695 5.0164,-14.38661 12.5489,-30.99925 11.4346,-25.21827 13.3861,-34.29132 11.8211,-54.95792 -1.339,-17.68187 3.6169,-51.88048 17.3487,-119.71391 10.5727,-52.2285 19.2232,-96.57679 19.2232,-98.55177 0,-1.97502 -16.9041,-3.59092 -37.5646,-3.59092 -35.3197,0 -37.7024,0.59557 -39.8708,9.96591 -3.4242,14.79739 -31.6583,147.76556 -37.62009,177.17173 l -5.1635,25.46843 h -167.9991 c -92.39948,0 -167.99909,-1.51331 -167.99909,-3.3629 0,-2.86734 35.37499,-170.1271 42.14662,-199.27726 2.26603,-9.75467 1.48997,-9.96591 -36.61324,-9.96591 h -38.9283 l -22.1982,105.19571 -22.1982,105.19571 -122.77354,1.1774 c -67.52544,0.64756 -122.77354,2.90243 -122.77354,5.01077 0,4.68384 18.44735,9.41827 113.98002,29.25238 40.8457,8.48019 80.22207,17.06837 87.50303,19.08476 l 13.23814,3.66621 -13.23814,4.62219 c -15.18946,5.30351 -26.34105,15.66743 -74.39963,69.14472 -28.56913,31.79032 -40.12721,41.13383 -66.43942,53.70952 -17.51947,8.37327 -44.35983,17.77037 -59.64523,20.88243 -26.86498,5.46961 -28.91828,6.89593 -61.58144,42.77732 -23.72768,26.0655 -40.73438,40.40711 -57.11052,48.16085 -20.34545,9.63314 -46.19065,36.00224 -46.19065,47.12704 0,1.6962 13.45398,3.0373 29.89773,2.9804 l 29.89773,-0.1036 z M 1329.3685,630.6997 c 10.5918,-3.27949 17.1326,-10.41805 27.6831,-30.21287 7.598,-14.25528 13.8146,-27.07892 13.8146,-28.49696 0,-1.41804 -11.4608,-5.68429 -25.4684,-9.48055 -14.0077,-3.7963 -32.9429,-8.91493 -42.0783,-11.37478 -11.6017,-3.12389 -16.6099,-6.94486 -16.6099,-12.6723 0,-16.61627 -63.7297,-34.13093 -96.4317,-26.50205 -43.3692,10.11739 -62.6037,17.90068 -65.3102,26.42804 -4.0863,12.87472 2.106,45.85107 11.5151,61.32325 14.9591,24.59813 36.1666,17.30893 57.3471,-19.71075 14.5603,-25.44872 21.2691,-29.97023 13.2764,-8.94788 -10.4447,27.47167 -3.1103,41.20235 27.2048,50.92938 8.9406,2.86872 18.779,8.25638 21.8631,11.97252 4.428,5.33548 11.257,6.15534 32.4667,3.89786 14.7725,-1.57231 33.1,-4.79112 40.7276,-7.15291 z"
       id="path2"
       transform="matrix(0.26458333,0,0,0.26458333,-101.39527,-38.361628)" /></g></svg>
